<?xml version="1.0" encoding="UTF-8"?>
<svg xmlns="http://www.w3.org/2000/svg" xmlns:xlink="http://www.w3.org/1999/xlink" width="500" zoomAndPan="magnify" viewBox="0 0 375 374.999991" height="500" preserveAspectRatio="xMidYMid meet" version="1.0">
  <defs>
    <clipPath id="dd9beb9a1d">
      <path d="M 37.699219 65.0625 L 337.328125 65.0625 L 337.328125 309.914062 L 37.699219 309.914062 Z M 37.699219 65.0625 " clip-rule="nonzero"></path>
    </clipPath>
  </defs>
  <rect x="-37.5" width="450" fill="#ffffff" y="-37.499999" height="449.999989" fill-opacity="1"></rect>
  <rect x="-37.5" width="450" fill="#ffffff" y="-37.499999" height="449.999989" fill-opacity="1"></rect>
  <g clip-path="url(#dd9beb9a1d)">
    <path fill="#000000" d="M 323.71875 152.550781 C 316.710938 154.695312 304.214844 149.636719 303.941406 149.519531 C 303.933594 149.519531 303.933594 149.519531 303.933594 149.519531 C 301.425781 146.179688 298.347656 143.167969 294.898438 140.539062 C 284.917969 132.921875 265.75 128.199219 257.347656 127.144531 C 248.945312 126.09375 229.511719 126.09375 219.269531 127.933594 C 209.027344 129.773438 174.101562 127.40625 169.375 125.304688 C 164.648438 123.207031 154.667969 122.152344 148.894531 124.109375 C 143.113281 126.070312 137.078125 126.621094 137.078125 126.621094 C 122.628906 121.890625 104.777344 91.167969 99.519531 83.027344 C 96.574219 78.457031 91.890625 76.988281 88.34375 76.582031 C 87.902344 76.195312 87.421875 75.851562 86.914062 75.589844 C 83.300781 73.730469 79.074219 68.355469 78.386719 66.199219 C 77.699219 64.042969 76.136719 65.238281 75.691406 67.441406 C 75.519531 68.324219 75.804688 70.8125 76.585938 73.785156 C 73.386719 71.917969 70.300781 69.136719 69.453125 67.652344 C 68.269531 65.585938 66.921875 67.160156 66.960938 69.523438 C 66.980469 70.882812 68.707031 75.425781 71.5 79.742188 C 66.746094 81.414062 62.019531 83.730469 60.394531 86.699219 C 56.71875 93.398438 50.9375 98.78125 45.554688 103.507812 C 44.566406 104.378906 43.671875 105.261719 42.878906 106.152344 C 42.183594 106.925781 41.546875 107.699219 40.964844 108.476562 C 38.601562 111.65625 37.300781 114.800781 37.8125 117.425781 C 38.03125 118.578125 38.457031 119.722656 39.753906 119.332031 C 40.171875 119.765625 40.914062 120.242188 42.195312 120.371094 C 42.179688 120.722656 42.246094 121.117188 42.445312 121.523438 C 42.699219 122.039062 43.167969 122.570312 43.980469 123.078125 C 47.132812 125.042969 50.546875 123.863281 55.929688 122.417969 C 55.929688 122.417969 62.066406 126.550781 61.082031 131.082031 C 60.097656 135.613281 61.394531 139.355469 63.113281 142.308594 C 63.789062 143.480469 64.449219 143.199219 64.929688 142.289062 C 65.574219 145.183594 66.363281 148.117188 67.976562 146.839844 C 69.605469 145.546875 70.628906 138.667969 71.105469 134.535156 C 71.519531 135.011719 72 134.925781 72.605469 133.839844 C 74.109375 131.132812 73.316406 124.300781 72.855469 121.214844 C 75.160156 121.871094 77.34375 122.433594 80.097656 120.703125 C 82.859375 125.277344 88.140625 133.214844 92.167969 143.949219 C 97.683594 158.65625 105.820312 174.414062 112.914062 186.753906 C 120.003906 199.097656 134.183594 221.683594 134.183594 231.398438 C 134.183594 231.398438 136.285156 245.839844 134.183594 253.457031 C 134.183594 253.457031 137.65625 276.292969 128.410156 292.847656 C 127.4375 294.589844 125.390625 297.445312 125.390625 297.445312 C 125.390625 297.445312 122.304688 301.382812 121.054688 303.613281 C 121.054688 303.613281 121.269531 304.117188 122.296875 304.484375 C 121.699219 305.488281 121.320312 306.175781 121.320312 306.175781 C 128.539062 308.671875 133.464844 306.5 133.464844 306.5 C 135.171875 305.058594 135.570312 300.398438 135.570312 300.398438 C 135.941406 300.601562 136.152344 300.730469 136.152344 300.730469 C 134.972656 297.046875 138.121094 292.191406 138.121094 292.191406 C 142.0625 291.402344 142.589844 289.957031 142.589844 289.957031 C 140.996094 278.011719 146.164062 260.363281 150.480469 248.332031 C 151.371094 254 153.429688 272.027344 146.484375 286.179688 C 145.601562 287.972656 143.707031 290.933594 143.707031 290.933594 C 143.707031 290.933594 140.835938 295.027344 139.710938 297.320312 C 139.710938 297.320312 139.945312 297.808594 140.996094 298.125 C 140.449219 299.15625 140.109375 299.863281 140.109375 299.863281 C 147.453125 301.972656 152.253906 299.550781 152.253906 299.550781 C 153.878906 298.019531 154.035156 293.339844 154.035156 293.339844 C 154.386719 293.507812 154.597656 293.617188 154.632812 293.632812 C 153.265625 290.027344 156.148438 285.011719 156.148438 285.011719 C 160.039062 284.015625 160.488281 282.546875 160.488281 282.546875 C 156.824219 263.015625 170.691406 227.042969 170.691406 227.042969 C 169.976562 224.421875 169.851562 220.773438 170.101562 216.675781 C 200.660156 230.746094 234.476562 226.191406 254.390625 221.285156 C 254.25 226.101562 254.167969 231.550781 257.566406 235.453125 C 257.566406 235.453125 257.566406 235.453125 257.566406 235.457031 C 257.605469 235.617188 258.347656 238.894531 257.566406 240.65625 C 257.160156 241.554688 255.929688 244.390625 257.117188 245.109375 C 258.757812 246.097656 260.785156 242.566406 261.519531 241.632812 C 262.179688 240.796875 262.871094 239.988281 263.675781 239.308594 C 263.714844 239.28125 263.757812 239.242188 263.800781 239.207031 C 263.8125 239.257812 263.820312 239.308594 263.824219 239.359375 C 265.261719 250.660156 261.945312 266.15625 260.242188 273.046875 C 256.78125 278.828125 250.617188 286.785156 250.617188 286.785156 C 250.617188 286.785156 246.589844 290.605469 245.003906 293.050781 C 243.410156 295.496094 244.890625 293.324219 244.890625 293.324219 C 244.890625 293.324219 245.550781 293.730469 246.730469 294.175781 C 245.878906 295.234375 245.355469 295.933594 245.355469 295.933594 C 251.402344 299.667969 259.316406 299.160156 259.316406 299.160156 C 262.804688 296.71875 264.957031 291.171875 264.957031 291.171875 C 265.347656 291.410156 265.5625 291.554688 265.5625 291.554688 C 264.980469 288.160156 268.761719 279.273438 268.761719 279.273438 C 271.164062 279.363281 274.316406 275.695312 274.316406 275.695312 C 270.640625 263.921875 275.167969 248.457031 278.59375 239.457031 C 282.226562 237.976562 284.300781 235.398438 285.441406 233.347656 C 291.097656 237.511719 296.183594 241.347656 299.367188 244.53125 C 307.671875 252.839844 311.21875 274.296875 312.335938 282.898438 C 311.203125 289.539062 308.359375 299.183594 308.359375 299.183594 C 308.359375 299.183594 305.996094 304.207031 305.402344 307.0625 C 304.8125 309.917969 305.402344 307.355469 305.402344 307.355469 C 305.402344 307.355469 306.164062 307.5 307.421875 307.484375 C 307.015625 308.777344 306.78125 309.625 306.78125 309.625 C 313.773438 310.902344 320.964844 307.554688 320.964844 307.554688 C 323.304688 304.042969 323.3125 298.179688 323.3125 298.0625 C 323.761719 298.140625 324.015625 298.199219 324.015625 298.199219 C 322.242188 295.246094 322.539062 285.59375 322.539062 285.59375 C 324.804688 284.804688 326.410156 280.246094 326.410156 280.246094 C 314.859375 265.800781 317.484375 236.914062 317.484375 236.914062 C 301.464844 219.839844 310.132812 184.65625 310.917969 171.785156 C 311.140625 168.183594 310.765625 164.75 309.890625 161.503906 C 315.746094 165.148438 323.574219 166.898438 329.429688 166.339844 C 337.703125 165.546875 333.789062 160.046875 333.789062 160.046875 C 336.09375 157.714844 337.070312 154.597656 337.3125 151.300781 C 337.703125 145.914062 330.8125 150.386719 323.71875 152.550781 " fill-opacity="1" fill-rule="nonzero"></path>
  </g>
</svg>
